<?xml version="1.0" encoding="utf-8"?><svg xmlns="http://www.w3.org/2000/svg" xmlns:xlink="http://www.w3.org/1999/xlink"><symbol viewBox="0 0 30 30" id="cp" xmlns="http://www.w3.org/2000/svg"><defs><style>.acls-1{fill:#999;fill-rule:evenodd}</style></defs><path id="aComposite_Path" data-name="Composite Path" class="acls-1" d="M1228 4228.5a15 15 0 1 0 15 15 15.005 15.005 0 0 0-15-15zm-4.01 18.16a3.161 3.161 0 1 1 3.1-3.16 3.129 3.129 0 0 1-3.1 3.16zm8.02 0a3.161 3.161 0 1 1 3.1-3.16 3.129 3.129 0 0 1-3.1 3.16z" transform="translate(-1213 -4228.5)"/></symbol><symbol viewBox="0 0 15 32" id="facebook" xmlns="http://www.w3.org/2000/svg"><title>facebook</title><path d="M10.016 12.672h4.992v4.992h-4.992v11.648H4.992V17.664H0v-4.992h4.992V10.56q0-1.6.512-3.264T6.88 4.704q1.856-2.048 4.64-2.048h3.488V7.68H11.52q-.64 0-1.088.416t-.416 1.056v3.52z"/></symbol><symbol viewBox="0 0 30 30" id="fb" xmlns="http://www.w3.org/2000/svg"><defs><style>.ccls-1{fill:#999;fill-rule:evenodd}</style></defs><path id="cfb" class="ccls-1" d="M15 0a15 15 0 1 0 15 15A15.005 15.005 0 0 0 15 0zm3.55 10.37H16.3a.755.755 0 0 0-.57.82v1.62h2.82v2.32h-2.82v6.98h-2.66v-6.98h-2.41v-2.32h2.41v-1.36a3.355 3.355 0 0 1 3.23-3.56h2.25v2.48z"/></symbol><symbol viewBox="0 0 32 32" id="left-arrow" xmlns="http://www.w3.org/2000/svg"><title>left-arrow</title><path d="M5.8 16l16-16 4.4 4.2L14.4 16l11.8 11.8-4.4 4.2z"/></symbol><symbol viewBox="0 0 30 30" id="linkedin" xmlns="http://www.w3.org/2000/svg"><defs><style>.ecls-1{fill:#999;fill-rule:evenodd}</style></defs><path id="elinkedin" class="ecls-1" d="M15 0a15 15 0 1 0 15 15A15.005 15.005 0 0 0 15 0zm-3.67 21.22H8.29v-9.78h3.04v9.78zM9.79 10.24a1.52 1.52 0 1 1 1.64-1.52 1.515 1.515 0 0 1-1.64 1.52zm12.63 10.98h-3.04V15.8c0-1.26-.44-2.12-1.54-2.12a1.656 1.656 0 0 0-1.55 1.14 2.176 2.176 0 0 0-.11.76v5.64h-3.03v-6.66c0-1.22-.04-2.24-.08-3.12h2.64l.14 1.36h.06a3.492 3.492 0 0 1 3.01-1.58c2 0 3.5 1.34 3.5 4.22v5.78z"/></symbol><symbol viewBox="0 0 32 32" id="right-arrow" xmlns="http://www.w3.org/2000/svg"><title>right-arrow</title><path d="M26.2 16l-16 16-4.4-4.2L17.6 16 5.8 4.2 10.2 0z"/></symbol><symbol viewBox="0 0 30 30" id="twitter" xmlns="http://www.w3.org/2000/svg"><defs><style>.gcls-1{fill:#999;fill-rule:evenodd}</style></defs><path id="gtwitter" class="gcls-1" d="M15 0a15 15 0 1 0 15 15A15.005 15.005 0 0 0 15 0zm6.1 12.29c.01.13.01.25.01.38a8.4 8.4 0 0 1-12.93 7.08 5.374 5.374 0 0 0 .7.04 5.947 5.947 0 0 0 3.67-1.26 2.962 2.962 0 0 1-2.76-2.06 2.505 2.505 0 0 0 .55.06 2.827 2.827 0 0 0 .78-.11 2.95 2.95 0 0 1-2.37-2.89v-.04a3.05 3.05 0 0 0 1.34.37 2.965 2.965 0 0 1-1.31-2.46 2.915 2.915 0 0 1 .4-1.49A8.35 8.35 0 0 0 15.27 13a2.927 2.927 0 0 1-.08-.67 2.95 2.95 0 0 1 5.11-2.02 6.112 6.112 0 0 0 1.88-.72 2.933 2.933 0 0 1-1.3 1.63 6.017 6.017 0 0 0 1.7-.46 6.147 6.147 0 0 1-1.48 1.53z"/></symbol></svg>