<svg id="Design" xmlns="http://www.w3.org/2000/svg" viewBox="0 0 42 49"><style>.st0{fill:#0095FF;}</style><g id="Services"><g id="_4"><path id="icon" class="st0" d="M22 29c-.3-.2-.6-.4-1-.4s-.7.2-1 .5l-6.4 12c-.3.4 0 1 .4 1.2 2 1.2 3.2 3.4 3.2 5.7 0 .4.4 1 1 1h5.5c.5 0 1-.5 1-1 0-2.4 1.2-4.6 3.2-5.8.4-.3.5-1 .3-1.4L22 29zm.8 18H19c-.2-2.3-1.4-4.4-3.2-6l4.2-7.5v4c0 .6.4 1 1 1s1-.3 1-1v-4l4.2 7.6c-2 1.6-3 3.7-3.4 6zM41 0h-4c-.6 0-1 .5-1 1v4.2c0 .5.3 1 1 1h.7c-1 7-5.8 13-13.6 13.7v-1c0-.4-.3-1-1-1h-4c-.5 0-1 .6-1 1v1C11 18.7 5.5 13.2 4.3 6.2H5c.6 0 1-.5 1-1V1c0-.5-.3-1-1-1H1C.4 0 0 .4 0 1v4.2c0 .5.4 1 1 1h1.3c1 6 4.8 11.3 10.3 14H5.8c-.6-.7-1.6-.8-2.4-.3-.8.5-1 1.5-.4 2.3.6.8 1.6 1 2.4.4l.4-.4H18v1c0 .6.4 1 1 1h4c.6 0 1-.4 1-1v-1h12.3c.6.8 1.6 1 2.4.4.8-.6 1-1.6.4-2.4-.5-.8-1.5-1-2.3-.4 0 0-.3 0-.4.3h-6.8c2-1 3.6-2.2 5-3.7 2.8-2.8 4.6-6.4 5.3-10.3H41c.5 0 1-.4 1-1V1c0-.5-.4-1-1-1zM2 2h2.2v2.2H2V2zm20 20.3h-2V20h2v2.3zm18-18h-2.2V2H40v2.2z"/></g></g></svg>